<svg id="Layer_1" data-name="Layer 1" xmlns="http://www.w3.org/2000/svg" viewBox="0 0 202.27 72.03"><defs><style>.cls-1{fill:#1c816e;}.cls-2,.cls-3{fill:#5bb9a4;}.cls-3{font-size:20.39px;font-family:Poppins-Bold, Poppins;font-weight:700;letter-spacing:0.06em;}.cls-4{font-size:18.39px;fill:#123a31;letter-spacing:0.03em;}.cls-5{font-size:18.48px;fill:#1a1818;font-family:Poppins-Regular, Poppins;}.cls-6{fill:none;stroke:#1a1818;stroke-miterlimit:10;}</style></defs><path class="cls-1" d="M12.33,17.77A8.18,8.18,0,1,0,4.05,31.89l12.77,7.5L25.1,25.26Zm3.9,19.29L4.91,30.42a6.48,6.48,0,0,1,6.55-11.18l11.32,6.64L22,27.19Z"/><path class="cls-1" d="M25,61.69h.06a8.09,8.09,0,0,0,4.78-1.56l.37-.27a8.23,8.23,0,0,0,3-6.36V39.39H16.92V53.51a8,8,0,0,0,.73,3.34A8,8,0,0,0,25,61.7Z"/><path class="cls-2" d="M24.74,38.4a1.37,1.37,0,0,0-.07-.16c0-.09-.09-.23-.16-.41a11.87,11.87,0,0,1-.46-1.57,10.88,10.88,0,0,1,.22-5.74,10,10,0,0,1,1.93-3.34,12.91,12.91,0,0,1,3.26-2.62,10.39,10.39,0,0,1,4.24-1.41,18.55,18.55,0,0,1,4.49.28,13.83,13.83,0,0,0,4.25.12A9.9,9.9,0,0,0,46.24,22a12.2,12.2,0,0,0,2.9-2.61,12.58,12.58,0,0,0,1.78-3,14.23,14.23,0,0,0,1-5.17,13.93,13.93,0,0,0-.06-1.49c0-.34,0-.53,0-.53s0,.19.07.53.08.84.11,1.49a14.33,14.33,0,0,1-.87,5.26,12.51,12.51,0,0,1-1.72,3.14,12.68,12.68,0,0,1-2.9,2.8,10.75,10.75,0,0,1-4,1.79,14.64,14.64,0,0,1-4.48.09,17.48,17.48,0,0,0-4.26-.09,9.3,9.3,0,0,0-3.7,1.42,11.64,11.64,0,0,0-2.79,2.48A8.47,8.47,0,0,0,25.87,31,9.05,9.05,0,0,0,26,35.79a10.25,10.25,0,0,0,.45,1.28c.07.14.11.24.15.31l0,.09Z"/><path class="cls-2" d="M30.42,24.14a29.5,29.5,0,0,0,.4-2.93c.05-.6,0-1.26.06-1.95a16.93,16.93,0,0,0,0-1.87c1.49-.5,7.2-2.92,3.29-9.52C29.67.33,25.71,0,25.71,0s-4.08,1.6-2.62,9.06,5.08,8,5.08,8,1.53-2.57-.75-11.29c-.36-1.36-.13-1.68,0-1.76a.61.61,0,0,0,.05.12c.2.56.5,1.13.68,1.79s.37,1.35.56,2.07.34,1.24.51,1.87l.42,2.46c.09.86.29,1.7.32,2.55s0,1.54.08,2.28A14.8,14.8,0,0,1,30,19.23c-.05.67-.07,1.31-.14,1.89a25.38,25.38,0,0,1-.5,2.77,8.4,8.4,0,0,1-.28,1l1.05.31A8.62,8.62,0,0,0,30.42,24.14Z"/><path class="cls-2" d="M45.06,22.94a11.71,11.71,0,0,0,.6-1.19c.11-.26.2-.54.31-.83a6.24,6.24,0,0,0,.25-.8c.71,0,3.5-.21,2.79-3.6-.82-3.87-2.46-4.58-2.46-4.58s-2,.09-2.44,3.49,1,4.14,1,4.14,1-.88,1.31-4.94c0-.63.19-.74.27-.74s0,0,0,0a8.05,8.05,0,0,1,0,.87q0,.46-.06,1c0,.4-.05.8-.07,1.21l-.12.64c-.12.42-.14.86-.27,1.28s-.2.67-.3,1a6.09,6.09,0,0,1-.32.91c-.12.28-.22.54-.34.78a12.18,12.18,0,0,1-.61,1.12c-.16.25-.27.4-.27.4l.4.28A4.85,4.85,0,0,0,45.06,22.94Z"/><path class="cls-2" d="M51.89,12.63c0-.17,0-.34,0-.51a9.21,9.21,0,0,0,0-1c0-.3,0-.6-.08-.9s-.11-.53-.16-.79-.1-.51-.16-.74A5.54,5.54,0,0,0,51.28,8l0,0c-.07,0-.15.13-.06.62.61,3.12,0,4,0,4S50,12.3,49.61,9.65s1.12-3.13,1.12-3.13,1.39.2,2.79,3c1.23,2.41-.83,3.14-1.37,3.28Z"/><text class="cls-3" transform="translate(48.21 39.7)">BIOTECH<tspan class="cls-4"><tspan x="0" y="21.19">PBC-2026</tspan></tspan></text><text class="cls-5" transform="translate(154.29 38.97)">MAY<tspan x="0" y="22">21-22</tspan></text><line class="cls-6" x1="149.31" y1="25.89" x2="149.31" y2="61.02"/></svg>