<svg id="Layer_1" data-name="Layer 1" xmlns="http://www.w3.org/2000/svg" viewBox="0 0 202.27 72.03"><defs><style>.cls-1{fill:#1c816e;}.cls-2{fill:#5bb9a4;}.cls-3{fill:#123a31;}.cls-4{fill:#1a1818;}</style></defs><path class="cls-1" d="M12.33,17.77A8.18,8.18,0,1,0,4.05,31.89l12.77,7.5L25.1,25.26Zm3.9,19.29L4.91,30.42a6.48,6.48,0,0,1,6.55-11.18l11.32,6.64L22,27.19Z"/><path class="cls-1" d="M25,61.69h.06a8.09,8.09,0,0,0,4.78-1.56l.37-.27a8.23,8.23,0,0,0,3-6.36V39.39H16.92V53.51a8,8,0,0,0,.73,3.34A8,8,0,0,0,25,61.7Z"/><path class="cls-2" d="M24.74,38.4a1.37,1.37,0,0,0-.07-.16c0-.09-.09-.23-.16-.41a11.87,11.87,0,0,1-.46-1.57,10.88,10.88,0,0,1,.22-5.74,10,10,0,0,1,1.93-3.34,12.91,12.91,0,0,1,3.26-2.62,10.39,10.39,0,0,1,4.24-1.41,18.55,18.55,0,0,1,4.49.28,13.83,13.83,0,0,0,4.25.12A9.9,9.9,0,0,0,46.24,22a12.2,12.2,0,0,0,2.9-2.61,12.58,12.58,0,0,0,1.78-3,14.23,14.23,0,0,0,1-5.17,13.93,13.93,0,0,0-.06-1.49c0-.34,0-.53,0-.53s0,.19.07.53.08.84.11,1.49a14.33,14.33,0,0,1-.87,5.26,12.51,12.51,0,0,1-1.72,3.14,12.68,12.68,0,0,1-2.9,2.8,10.75,10.75,0,0,1-4,1.79,14.64,14.64,0,0,1-4.48.09,17.48,17.48,0,0,0-4.26-.09,9.3,9.3,0,0,0-3.7,1.42,11.64,11.64,0,0,0-2.79,2.48A8.47,8.47,0,0,0,25.87,31,9.05,9.05,0,0,0,26,35.79a10.25,10.25,0,0,0,.45,1.28c.07.14.11.24.15.31l0,.09Z"/><path class="cls-2" d="M30.42,24.14a29.5,29.5,0,0,0,.4-2.93c.05-.6,0-1.26.06-1.95a16.93,16.93,0,0,0,0-1.87c1.49-.5,7.2-2.92,3.29-9.52C29.67.33,25.71,0,25.71,0s-4.08,1.6-2.62,9.06,5.08,8,5.08,8,1.53-2.57-.75-11.29c-.36-1.36-.13-1.68,0-1.76a.61.61,0,0,0,.05.12c.2.56.5,1.13.68,1.79s.37,1.35.56,2.07.34,1.24.51,1.87l.42,2.46c.09.86.29,1.7.32,2.55s0,1.54.08,2.28A14.8,14.8,0,0,1,30,19.23c-.05.67-.07,1.31-.14,1.89a25.38,25.38,0,0,1-.5,2.77,8.4,8.4,0,0,1-.28,1l1.05.31A8.62,8.62,0,0,0,30.42,24.14Z"/><path class="cls-2" d="M45.06,22.94a11.71,11.71,0,0,0,.6-1.19c.11-.26.2-.54.31-.83a6.24,6.24,0,0,0,.25-.8c.71,0,3.5-.21,2.79-3.6-.82-3.87-2.46-4.58-2.46-4.58s-2,.09-2.44,3.49,1,4.14,1,4.14,1-.88,1.31-4.94c0-.63.19-.74.27-.74s0,0,0,0a8.05,8.05,0,0,1,0,.87q0,.46-.06,1c0,.4-.05.8-.07,1.21l-.12.64c-.12.42-.14.86-.27,1.28s-.2.67-.3,1a6.09,6.09,0,0,1-.32.91c-.12.28-.22.54-.34.78a12.18,12.18,0,0,1-.61,1.12c-.16.25-.27.4-.27.4l.4.28A4.85,4.85,0,0,0,45.06,22.94Z"/><path class="cls-2" d="M51.89,12.63c0-.17,0-.34,0-.51a9.21,9.21,0,0,0,0-1c0-.3,0-.6-.08-.9s-.11-.53-.16-.79-.1-.51-.16-.74A5.54,5.54,0,0,0,51.28,8l0,0c-.07,0-.15.13-.06.62.61,3.12,0,4,0,4S50,12.3,49.61,9.65s1.12-3.13,1.12-3.13,1.39.2,2.79,3c1.23,2.41-.83,3.14-1.37,3.28Z"/><path class="cls-2" d="M60.14,33.59a3.77,3.77,0,0,1-.5,5.06,5.3,5.3,0,0,1-3.5,1.05H49.48V25.38h6.44a5.31,5.31,0,0,1,3.41,1,3.32,3.32,0,0,1,1.24,2.71,3.26,3.26,0,0,1-.67,2.1,3.44,3.44,0,0,1-1.76,1.17A3.3,3.3,0,0,1,60.14,33.59ZM53,31.17h2.28a2,2,0,0,0,1.32-.37A1.34,1.34,0,0,0,57,29.69a1.39,1.39,0,0,0-.46-1.13,2,2,0,0,0-1.32-.38H53Zm3.93,5.31a1.39,1.39,0,0,0,.48-1.15,1.49,1.49,0,0,0-.5-1.18,2.05,2.05,0,0,0-1.38-.43H53v3.16h2.57A2.06,2.06,0,0,0,56.89,36.48Z"/><path class="cls-2" d="M67.68,25.38V39.7H64.19V25.38Z"/><path class="cls-2" d="M74.56,38.9a7,7,0,0,1-2.67-2.62,7.69,7.69,0,0,1,0-7.55,7,7,0,0,1,2.67-2.61,7.75,7.75,0,0,1,7.4,0,6.85,6.85,0,0,1,2.65,2.61,7.8,7.8,0,0,1,0,7.55A6.94,6.94,0,0,1,82,38.9a7.73,7.73,0,0,1-7.39,0ZM81,35.52a4.32,4.32,0,0,0,1-3,4.33,4.33,0,0,0-1-3,3.92,3.92,0,0,0-5.5,0,4.31,4.31,0,0,0-1,3,4.33,4.33,0,0,0,1,3,3.56,3.56,0,0,0,2.76,1.13A3.5,3.5,0,0,0,81,35.52Z"/><path class="cls-2" d="M99.09,25.38v2.8H95.3V39.7H91.82V28.18H88v-2.8Z"/><path class="cls-2" d="M105.62,28.18v2.89h4.67v2.69h-4.67V36.9h5.28v2.8h-8.77V25.38h8.77v2.8Z"/><path class="cls-2" d="M114.77,28.74a6.57,6.57,0,0,1,2.56-2.59,7.39,7.39,0,0,1,3.72-.93,7.09,7.09,0,0,1,4.36,1.35,6.45,6.45,0,0,1,2.43,3.67H124a3.08,3.08,0,0,0-1.22-1.37A3.43,3.43,0,0,0,121,28.4a3.37,3.37,0,0,0-2.61,1.12,4.33,4.33,0,0,0-1,3,4.33,4.33,0,0,0,1,3A3.37,3.37,0,0,0,121,36.64a3.43,3.43,0,0,0,1.78-.47A3.08,3.08,0,0,0,124,34.8h3.83a6.43,6.43,0,0,1-2.43,3.66,7.15,7.15,0,0,1-4.36,1.34,7.39,7.39,0,0,1-3.72-.93,6.61,6.61,0,0,1-2.56-2.58,8.2,8.2,0,0,1,0-7.55Z"/><path class="cls-2" d="M143.66,25.38V39.7h-3.49V33.8h-5.42v5.9h-3.49V25.38h3.49V31h5.42V25.38Z"/><path class="cls-3" d="M58.67,54.18a3.77,3.77,0,0,1-1.58,1.5,5.56,5.56,0,0,1-2.65.57H52.5v4.63H49.35V48h5.09a5.94,5.94,0,0,1,2.62.53A3.67,3.67,0,0,1,58.65,50a4.24,4.24,0,0,1,.54,2.15A4.09,4.09,0,0,1,58.67,54.18Zm-3.12-.85a1.84,1.84,0,0,0,0-2.39,1.89,1.89,0,0,0-1.34-.43H52.5v3.24h1.71A1.89,1.89,0,0,0,55.55,53.33Z"/><path class="cls-3" d="M71,55.38a3.38,3.38,0,0,1-.45,4.56,4.76,4.76,0,0,1-3.15.94h-6V48h5.81a4.79,4.79,0,0,1,3.08.9,3.27,3.27,0,0,1,.51,4.34,3.15,3.15,0,0,1-1.59,1.05A3,3,0,0,1,71,55.38ZM64.52,53.2h2.06a1.79,1.79,0,0,0,1.18-.34,1.22,1.22,0,0,0,.42-1,1.24,1.24,0,0,0-.42-1,1.73,1.73,0,0,0-1.18-.35H64.52ZM68.06,58a1.27,1.27,0,0,0,.43-1A1.35,1.35,0,0,0,68,55.88a1.87,1.87,0,0,0-1.24-.38H64.52v2.85h2.32A1.87,1.87,0,0,0,68.06,58Z"/><path class="cls-3" d="M74.34,51a5.82,5.82,0,0,1,2.31-2.33A6.64,6.64,0,0,1,80,47.83,6.45,6.45,0,0,1,83.94,49a5.81,5.81,0,0,1,2.18,3.31H82.67a2.81,2.81,0,0,0-1.1-1.23A3.09,3.09,0,0,0,80,50.7a3,3,0,0,0-2.35,1,3.9,3.9,0,0,0-.9,2.7,3.94,3.94,0,0,0,.9,2.71,3.24,3.24,0,0,0,4,.58,2.81,2.81,0,0,0,1.1-1.23h3.45a5.72,5.72,0,0,1-2.18,3.3A6.52,6.52,0,0,1,80,61a6.64,6.64,0,0,1-3.35-.84,5.88,5.88,0,0,1-2.31-2.33,6.88,6.88,0,0,1-.83-3.4A7,7,0,0,1,74.34,51Z"/><path class="cls-3" d="M96.51,53.13v2.61H88.42V53.13Z"/><path class="cls-3" d="M100,57.91c1.2-1,2.15-1.81,2.84-2.45a11.89,11.89,0,0,0,1.75-2,3.62,3.62,0,0,0,.72-2,1.8,1.8,0,0,0-.35-1.18,1.46,1.46,0,0,0-2.14.1,2.44,2.44,0,0,0-.4,1.48h-3a5.3,5.3,0,0,1,.67-2.61,4,4,0,0,1,1.67-1.55,5.35,5.35,0,0,1,2.31-.49,4.44,4.44,0,0,1,3.3,1.12,4,4,0,0,1,1.12,2.92,5.71,5.71,0,0,1-1.35,3.65,19.25,19.25,0,0,1-3.42,3.28h5V60.7H99.4V58.37Z"/><path class="cls-3" d="M111.78,49a5.19,5.19,0,0,1,7.89,0,8.86,8.86,0,0,1,1.22,5,9,9,0,0,1-1.22,5,5.19,5.19,0,0,1-7.89,0,9,9,0,0,1-1.22-5A8.86,8.86,0,0,1,111.78,49Zm5.62,2.12a1.9,1.9,0,0,0-3.35,0,7.94,7.94,0,0,0-.4,2.86,13.09,13.09,0,0,0,.14,2.07,2.69,2.69,0,0,0,.6,1.32,2,2,0,0,0,2.67,0,2.59,2.59,0,0,0,.59-1.32A11.87,11.87,0,0,0,117.8,54,7.94,7.94,0,0,0,117.4,51.13Z"/><path class="cls-3" d="M123.56,57.91c1.2-1,2.14-1.81,2.84-2.45a11.89,11.89,0,0,0,1.75-2,3.62,3.62,0,0,0,.72-2,1.8,1.8,0,0,0-.35-1.18,1.46,1.46,0,0,0-2.14.1,2.44,2.44,0,0,0-.4,1.48h-3a5.2,5.2,0,0,1,.67-2.61,4,4,0,0,1,1.67-1.55,5.35,5.35,0,0,1,2.31-.49,4.44,4.44,0,0,1,3.3,1.12A4,4,0,0,1,132,51.21a5.7,5.7,0,0,1-1.34,3.65,19.25,19.25,0,0,1-3.42,3.28h5V60.7H123V58.37Z"/><path class="cls-3" d="M140.27,50.06a1.54,1.54,0,0,0-1.05-.34,1.58,1.58,0,0,0-1.51.91,7,7,0,0,0-.47,2.88,2.74,2.74,0,0,1,1.16-1,3.91,3.91,0,0,1,1.69-.37A3.82,3.82,0,0,1,143,53.27a4.4,4.4,0,0,1,1.1,3.18,5,5,0,0,1-.55,2.36A3.88,3.88,0,0,1,142,60.39a5,5,0,0,1-2.45.57c-1.89,0-3.2-.59-3.94-1.78a9.76,9.76,0,0,1-1.1-5.1,9.22,9.22,0,0,1,1.17-5.19,4.19,4.19,0,0,1,3.74-1.7,4.6,4.6,0,0,1,2.32.54,3.71,3.71,0,0,1,1.44,1.42,4.93,4.93,0,0,1,.58,1.93h-2.93A1.89,1.89,0,0,0,140.27,50.06Zm-2.25,5a1.72,1.72,0,0,0-.53,1.34A1.94,1.94,0,0,0,138,57.8a1.86,1.86,0,0,0,1.39.49,1.69,1.69,0,0,0,1.28-.49,1.83,1.83,0,0,0,.47-1.33,2,2,0,0,0-.46-1.36,1.73,1.73,0,0,0-1.33-.5A1.9,1.9,0,0,0,138,55.08Z"/><path class="cls-4" d="M168.78,26.18V39H167.1V29.44L162.85,39h-1.19l-4.27-9.55V39h-1.68V26.18h1.81l4.74,10.58L167,26.18Z"/><path class="cls-4" d="M179.24,36.11h-5.62l-1,2.86h-1.78l4.66-12.81h1.94L182.05,39h-1.77Zm-.48-1.37-2.33-6.51-2.33,6.51Z"/><path class="cls-4" d="M193.1,26.09l-4.19,8V39h-1.68V34.11l-4.22-8h1.87l3.18,6.53,3.18-6.53Z"/><path class="cls-4" d="M158.91,56.53A15,15,0,0,0,161.16,54a4.56,4.56,0,0,0,.91-2.6,2.88,2.88,0,0,0-.58-1.9,2.33,2.33,0,0,0-1.88-.69,2.44,2.44,0,0,0-2,.79,3.29,3.29,0,0,0-.75,2.1h-1.62a4.48,4.48,0,0,1,1.25-3.2,4.79,4.79,0,0,1,6.08-.08,3.83,3.83,0,0,1,1.11,2.91,5.52,5.52,0,0,1-.91,3,12.78,12.78,0,0,1-2.08,2.55c-.78.73-1.77,1.59-3,2.56h6.36v1.41h-8.89V59.62C156.8,58.37,158,57.34,158.91,56.53Z"/><path class="cls-4" d="M165.62,49.14V47.61h3.47V61h-1.7V49.14Z"/><path class="cls-4" d="M179.28,53.49v1.42H171.9V53.49Z"/><path class="cls-4" d="M185.64,56.53A15.35,15.35,0,0,0,187.88,54a4.58,4.58,0,0,0,.92-2.6,2.88,2.88,0,0,0-.59-1.9,2.3,2.3,0,0,0-1.87-.69,2.44,2.44,0,0,0-2,.79,3.29,3.29,0,0,0-.75,2.1H182a4.44,4.44,0,0,1,1.26-3.2,4.77,4.77,0,0,1,6.07-.08,3.8,3.8,0,0,1,1.12,2.91,5.52,5.52,0,0,1-.91,3,13.14,13.14,0,0,1-2.08,2.55c-.78.73-1.77,1.59-3,2.56h6.36v1.41H182V59.62Q184.3,57.75,185.64,56.53Z"/><path class="cls-4" d="M196.26,56.53A15,15,0,0,0,198.51,54a4.56,4.56,0,0,0,.91-2.6,2.88,2.88,0,0,0-.58-1.9,2.32,2.32,0,0,0-1.87-.69,2.44,2.44,0,0,0-1.95.79,3.24,3.24,0,0,0-.75,2.1h-1.63a4.44,4.44,0,0,1,1.26-3.2,4.77,4.77,0,0,1,6.07-.08,3.8,3.8,0,0,1,1.12,2.91,5.53,5.53,0,0,1-.92,3,12.78,12.78,0,0,1-2.08,2.55c-.77.73-1.76,1.59-3,2.56h6.36v1.41h-8.89V59.62C194.15,58.37,195.38,57.34,196.26,56.53Z"/><rect class="cls-4" x="148.81" y="25.89" width="1" height="35.13"/></svg>